<svg width="1600" height="900" viewBox="0 0 1600 900" fill="none" xmlns="http://www.w3.org/2000/svg" role="img" aria-labelledby="title desc">
<title id="title">Router upgrade illustration for NetworkConnectIT</title>
<desc id="desc">A modern router, Wi-Fi signal, connected office devices, and a technician configuring a network upgrade.</desc>
<rect width="1600" height="900" fill="url(#bg)"/>
<rect x="88" y="88" width="1424" height="724" rx="42" fill="url(#panel)" stroke="rgba(142,191,255,0.35)"/>
<circle cx="1298" cy="194" r="132" fill="url(#glow)" opacity="0.9"/>
<circle cx="338" cy="712" r="168" fill="url(#glow2)" opacity="0.75"/>
<rect x="180" y="180" width="760" height="452" rx="30" fill="#0F223E" stroke="#365F8F" stroke-width="2"/>
<rect x="208" y="214" width="704" height="320" rx="22" fill="url(#screen)"/>
<path d="M278 480C364 388 473 342 593 342C708 342 813 383 892 460" stroke="#7AD2FF" stroke-width="12" stroke-linecap="round" opacity="0.68"/>
<path d="M330 478C404 408 496 370 596 370C692 370 780 401 852 466" stroke="#B8F6FF" stroke-width="8" stroke-linecap="round" opacity="0.88"/>
<path d="M388 474C448 429 518 406 594 406C666 406 734 426 792 470" stroke="#F3FEFF" stroke-width="6" stroke-linecap="round"/>
<circle cx="594" cy="478" r="14" fill="#9CF2FF"/>
<rect x="314" y="556" width="560" height="34" rx="17" fill="#123257"/>
<rect x="338" y="566" width="138" height="14" rx="7" fill="#35C5FF"/>
<rect x="496" y="566" width="92" height="14" rx="7" fill="#8FF6E7"/>
<rect x="608" y="566" width="124" height="14" rx="7" fill="#5E9DFF"/>
<rect x="752" y="566" width="84" height="14" rx="7" fill="#E6F8FF"/>
<rect x="1014" y="232" width="386" height="236" rx="28" fill="#0E213A" stroke="#3A668F" stroke-width="2"/>
<rect x="1046" y="262" width="322" height="24" rx="12" fill="#1B385E"/>
<rect x="1046" y="316" width="214" height="18" rx="9" fill="#88F4E0"/>
<rect x="1046" y="354" width="286" height="18" rx="9" fill="#64C4FF"/>
<rect x="1046" y="392" width="168" height="18" rx="9" fill="#E6F7FF"/>
<rect x="1246" y="512" width="132" height="182" rx="24" fill="#102542" stroke="#3D6C98" stroke-width="2"/>
<rect x="1276" y="546" width="72" height="92" rx="12" fill="#183B62"/>
<circle cx="1312" cy="667" r="10" fill="#92F7E4"/>
<rect x="938" y="540" width="250" height="138" rx="26" fill="#102746" stroke="#3B6794" stroke-width="2"/>
<rect x="964" y="568" width="198" height="18" rx="9" fill="#1C3D66"/>
<rect x="964" y="604" width="146" height="16" rx="8" fill="#7AD2FF"/>
<rect x="964" y="636" width="108" height="16" rx="8" fill="#8EF2E4"/>
<path d="M1096 732C1118 670 1176 620 1248 620C1320 620 1382 668 1404 732" stroke="#7ED8FF" stroke-width="8" stroke-linecap="round" opacity="0.65"/>
<g opacity="0.95">
<path d="M1052 728C1064 684 1100 650 1146 650C1192 650 1228 684 1240 728" stroke="#DDFBFF" stroke-width="6" stroke-linecap="round"/>
<circle cx="1146" cy="606" r="44" fill="#17345A"/>
<circle cx="1146" cy="590" r="18" fill="#E9F9FF"/>
<path d="M1086 726C1094 676 1118 648 1146 648C1174 648 1198 676 1206 726" fill="#1E4D7F"/>
</g>
<path d="M936 610C976 578 1026 560 1084 560" stroke="#57BEFF" stroke-width="4" stroke-linecap="round" stroke-dasharray="8 12"/>
<path d="M1190 604C1202 598 1218 594 1234 594C1280 594 1318 620 1334 658" stroke="#7EF3E2" stroke-width="4" stroke-linecap="round" stroke-dasharray="8 12"/>
<path d="M600 180V128" stroke="#CFFAFF" stroke-width="8" stroke-linecap="round"/>
<path d="M548 186C548 158.386 570.386 136 598 136C625.614 136 648 158.386 648 186" stroke="#A8F7FF" stroke-width="8" stroke-linecap="round"/>
<path d="M500 196C500 142.98 542.98 100 596 100C649.02 100 692 142.98 692 196" stroke="#5DBDFF" stroke-width="8" stroke-linecap="round" opacity="0.92"/>
<rect x="240" y="704" width="1120" height="34" rx="17" fill="#0B1C33" opacity="0.7"/>
<defs>
<linearGradient id="bg" x1="1600" y1="0" x2="0" y2="900" gradientUnits="userSpaceOnUse">
<stop stop-color="#081B34"/>
<stop offset="0.5" stop-color="#0C2443"/>
<stop offset="1" stop-color="#071425"/>
</linearGradient>
<linearGradient id="panel" x1="160" y1="132" x2="1432" y2="792" gradientUnits="userSpaceOnUse">
<stop stop-color="#102544" stop-opacity="0.9"/>
<stop offset="1" stop-color="#0A1730" stop-opacity="0.98"/>
</linearGradient>
<linearGradient id="screen" x1="218" y1="214" x2="842" y2="534" gradientUnits="userSpaceOnUse">
<stop stop-color="#173964"/>
<stop offset="0.58" stop-color="#10294A"/>
<stop offset="1" stop-color="#0B1C33"/>
</linearGradient>
<radialGradient id="glow" cx="0" cy="0" r="1" gradientUnits="userSpaceOnUse" gradientTransform="translate(1298 194) rotate(90) scale(132)">
<stop stop-color="#5DD1FF" stop-opacity="0.4"/>
<stop offset="1" stop-color="#5DD1FF" stop-opacity="0"/>
</radialGradient>
<radialGradient id="glow2" cx="0" cy="0" r="1" gradientUnits="userSpaceOnUse" gradientTransform="translate(338 712) rotate(90) scale(168)">
<stop stop-color="#4AF0D8" stop-opacity="0.26"/>
<stop offset="1" stop-color="#4AF0D8" stop-opacity="0"/>
</radialGradient>
</defs>
</svg>
